<?xml version="1.0" encoding="UTF-8" standalone="no"?>
<svg
   xmlns:dc="http://purl.org/dc/elements/1.1/"
   xmlns:cc="http://web.resource.org/cc/"
   xmlns:rdf="http://www.w3.org/1999/02/22-rdf-syntax-ns#"
   xmlns:svg="http://www.w3.org/2000/svg"
   xmlns="http://www.w3.org/2000/svg"
   xmlns:sodipodi="http://sodipodi.sourceforge.net/DTD/sodipodi-0.dtd"
   xmlns:inkscape="http://www.inkscape.org/namespaces/inkscape"
   viewBox="0 0 435.4 486"
   id="svg2"
   sodipodi:version="0.32"
   inkscape:version="0.44.1"
   width="736.87183"
   height="528.29968"
   sodipodi:docname="xygr_naklady.svg"
   sodipodi:docbase="D:\Kuba\BakPrace\XYgr\Ukazky"
   version="1.0">
  <metadata
     id="metadata127">
    <rdf:RDF>
      <cc:Work
         rdf:about="">
        <dc:format>image/svg+xml</dc:format>
        <dc:type
           rdf:resource="http://purl.org/dc/dcmitype/StillImage" />
      </cc:Work>
    </rdf:RDF>
  </metadata>
  <defs
     id="defs125" />
  <sodipodi:namedview
     inkscape:window-height="717"
     inkscape:window-width="1024"
     inkscape:pageshadow="2"
     inkscape:pageopacity="0.0"
     guidetolerance="10.0"
     gridtolerance="10.0"
     objecttolerance="10.0"
     borderopacity="1.0"
     bordercolor="#666666"
     pagecolor="#ffffff"
     id="base"
     inkscape:zoom="0.71648337"
     inkscape:cx="531.73955"
     inkscape:cy="335.19344"
     inkscape:window-x="-4"
     inkscape:window-y="-4"
     inkscape:current-layer="svg2" />
  <desc
     id="desc4">Průměrné náklady v závislosti na množství</desc>
  <g
     id="g6"
     transform="matrix(1.547391,0,0,0.992045,-118.1804,1.939299)">
    <text
       x="217.7"
       y="28"
       font-size="18"
       id="text8"
       style="font-size:18px;text-anchor:middle;fill:black;font-family:Verdana">Průměrné náklady v závislosti na množství</text>
  </g>
  <g
     id="g10"
     style="stroke:black"
     transform="matrix(1.547391,0,0,0.992045,-118.1804,1.939299)">
    <path
       d="M 28.6,455 L 28.6,461 M 63.6,455 L 63.6,461 M 98.6,455 L 98.6,461 M 133.6,455 L 133.6,461 M 168.6,455 L 168.6,461 M 203.6,455 L 203.6,461 M 238.6,455 L 238.6,461 M 273.6,455 L 273.6,461 M 308.6,455 L 308.6,461 M 343.6,455 L 343.6,461 M 378.6,455 L 378.6,461 M 413.6,455 L 413.6,461"
       id="path12"
       style="stroke-width:1" />
    <path
       d="M 25.6,458 L 31.6,458 M 25.6,433 L 31.6,433 M 25.6,408 L 31.6,408 M 25.6,383 L 31.6,383 M 25.6,358 L 31.6,358 M 25.6,333 L 31.6,333 M 25.6,308 L 31.6,308 M 25.6,283 L 31.6,283 M 25.6,258 L 31.6,258 M 25.6,233 L 31.6,233 M 25.6,208 L 31.6,208 M 25.6,183 L 31.6,183 M 25.6,158 L 31.6,158 M 25.6,133 L 31.6,133 M 25.6,108 L 31.6,108 M 25.6,83 L 31.6,83 M 25.6,58 L 31.6,58"
       id="path14"
       style="stroke-width:1" />
  </g>
  <g
     id="g16"
     style="stroke:black;stroke-width:1"
     transform="matrix(1.547391,0,0,0.992045,-118.1804,1.939299)">
    <line
       x1="28.6"
       y1="458"
       x2="413.60001"
       y2="458"
       id="line18" />
  </g>
  <g
     font-size="10"
     id="g20"
     style="font-size:10px;text-anchor:middle;fill:black;font-family:Verdana"
     transform="matrix(1.547391,0,0,0.992045,-118.1804,1.939299)">
    <text
       x="28.6"
       y="471"
       id="text22">0</text>
    <text
       x="63.599998"
       y="471"
       id="text24">1</text>
    <text
       x="98.599998"
       y="471"
       id="text26">2</text>
    <text
       x="133.60001"
       y="471"
       id="text28">3</text>
    <text
       x="168.60001"
       y="471"
       id="text30">4</text>
    <text
       x="203.60001"
       y="471"
       id="text32">5</text>
    <text
       x="238.60001"
       y="471"
       id="text34">6</text>
    <text
       x="273.60001"
       y="471"
       id="text36">7</text>
    <text
       x="308.60001"
       y="471"
       id="text38">8</text>
    <text
       x="343.60001"
       y="471"
       id="text40">9</text>
    <text
       x="378.60001"
       y="471"
       id="text42">10</text>
    <text
       x="413.60001"
       y="471"
       id="text44">11</text>
  </g>
  <g
     id="g46"
     style="stroke:black;stroke-width:1"
     transform="matrix(1.547391,0,0,0.992045,-118.1804,1.939299)">
    <line
       x1="28.6"
       y1="458"
       x2="28.6"
       y2="58"
       id="line48" />
  </g>
  <g
     font-size="10"
     id="g50"
     style="font-size:10px;text-anchor:end;fill:black;font-family:Verdana"
     transform="matrix(1.547391,0,0,0.992045,-118.1804,1.939299)">
    <text
       x="22.6"
       y="461.5"
       id="text52">0</text>
    <text
       x="22.6"
       y="436.5"
       id="text54">5</text>
    <text
       x="22.6"
       y="411.5"
       id="text56">10</text>
    <text
       x="22.6"
       y="386.5"
       id="text58">15</text>
    <text
       x="22.6"
       y="361.5"
       id="text60">20</text>
    <text
       x="22.6"
       y="336.5"
       id="text62">25</text>
    <text
       x="22.6"
       y="311.5"
       id="text64">30</text>
    <text
       x="22.6"
       y="286.5"
       id="text66">35</text>
    <text
       x="22.6"
       y="261.5"
       id="text68">40</text>
    <text
       x="22.6"
       y="236.5"
       id="text70">45</text>
    <text
       x="22.6"
       y="211.5"
       id="text72">50</text>
    <text
       x="22.6"
       y="186.5"
       id="text74">55</text>
    <text
       x="22.6"
       y="161.5"
       id="text76">60</text>
    <text
       x="22.6"
       y="136.5"
       id="text78">65</text>
    <text
       x="22.6"
       y="111.5"
       id="text80">70</text>
    <text
       x="22.6"
       y="86.5"
       id="text82">75</text>
    <text
       x="22.6"
       y="61.5"
       id="text84">80</text>
  </g>
  <g
     id="g86"
     style="fill:none;stroke-width:1.5;stroke-linecap:round;stroke-linejoin:round"
     transform="matrix(1.547391,0,0,0.992045,-118.1804,1.939299)">
    <path
       d="M 74.1,83 C 74.1,83 113.79,248 168.6,248 C 223.41,248 378.6,83 378.6,83"
       id="path88"
       style="stroke:black" />
    <path
       d="M 28.6,308 C 28.6,308 77.6,360.4 140.6,328 C 203.6,295.6 378.6,128 378.6,128"
       id="path90"
       style="stroke:gray" />
    <path
       d="M 63.6,183 C 63.6,183 76.9,317.5 133.6,358 C 190.3,398.5 378.6,408 378.6,408"
       id="path92"
       style="stroke:black;stroke-dasharray:14, 3" />
    <path
       d="M 28.6,308 C 28.6,308 42.11,316.3 56.6,328 C 71.09,339.7 93.98,373 109.1,373 C 124.22,373 129.89,350.5 140.6,328 C 151.31,305.5 154.11,292.1 168.6,248 C 183.09,203.9 221.1,83 221.1,83"
       id="path94"
       style="stroke:red" />
    <path
       id="path96"
       style="stroke:red" />
    <path
       id="path98"
       style="stroke:red" />
  </g>
  <g
     id="g100"
     style="color:red;fill:none;stroke:red;stroke-width:1.5;stroke-linecap:round"
     transform="matrix(1.547391,0,0,0.992045,-118.1804,1.939299)">
    <circle
       cx="168.60001"
       cy="248"
       r="4"
       id="circle102"
       sodipodi:cx="168.60001"
       sodipodi:cy="248"
       sodipodi:rx="4"
       sodipodi:ry="4" />
  </g>
  <g
     id="g104"
     style="color:red;fill:none;stroke:red;stroke-width:1.5;stroke-linecap:round"
     transform="matrix(1.547391,0,0,0.992045,-118.1804,1.939299)">
    <circle
       cx="140.60001"
       cy="328"
       r="4"
       id="circle106"
       sodipodi:cx="140.60001"
       sodipodi:cy="328"
       sodipodi:rx="4"
       sodipodi:ry="4" />
  </g>
  <g
     font-size="10"
     id="g108"
     style="font-size:10px;text-anchor:start;fill:black;font-family:Verdana"
     transform="matrix(1.547391,0,0,0.992045,-118.1804,1.939299)">
    <text
       x="378.60001"
       y="80"
       id="text110"
       style="fill:black">AC</text>
    <text
       x="378.60001"
       y="125"
       id="text112"
       style="fill:black">AVC</text>
    <text
       x="378.60001"
       y="405"
       id="text114"
       style="fill:black">AFC</text>
    <text
       x="221.10001"
       y="80"
       id="text116"
       style="fill:black">MC</text>
    <text
       x="172.10001"
       y="260"
       id="text118"
       style="fill:black">M</text>
    <text
       x="144.10001"
       y="340"
       id="text120"
       style="fill:black">M'</text>
  </g>
  <rect
     x="-117.40668"
     y="2.4353244"
     width="672.18658"
     height="481.14246"
     id="rect122"
     style="fill:none;stroke:black;stroke-width:1.2389847" />
</svg>
