<?xml version="1.0" encoding="UTF-8" standalone="no"?>
<svg
   xmlns:dc="http://purl.org/dc/elements/1.1/"
   xmlns:cc="http://web.resource.org/cc/"
   xmlns:rdf="http://www.w3.org/1999/02/22-rdf-syntax-ns#"
   xmlns:svg="http://www.w3.org/2000/svg"
   xmlns="http://www.w3.org/2000/svg"
   xmlns:sodipodi="http://sodipodi.sourceforge.net/DTD/sodipodi-0.dtd"
   xmlns:inkscape="http://www.inkscape.org/namespaces/inkscape"
   viewBox="0 0 477.2 303"
   id="svg2"
   sodipodi:version="0.32"
   inkscape:version="0.44.1"
   width="120"
   height="285"
   sodipodi:docname="typyBodu.svg"
   sodipodi:docbase="D:\Kuba\BakPrace\Obrazky"
   version="1.0">
  <metadata
     id="metadata169">
    <rdf:RDF>
      <cc:Work
         rdf:about="">
        <dc:format>image/svg+xml</dc:format>
        <dc:type
           rdf:resource="http://purl.org/dc/dcmitype/StillImage" />
      </cc:Work>
    </rdf:RDF>
  </metadata>
  <defs
     id="defs167" />
  <sodipodi:namedview
     inkscape:window-height="573"
     inkscape:window-width="863"
     inkscape:pageshadow="2"
     inkscape:pageopacity="0.0"
     guidetolerance="10.0"
     gridtolerance="10.0"
     objecttolerance="10.0"
     borderopacity="1.0"
     bordercolor="#666666"
     pagecolor="#ffffff"
     id="base"
     borderlayer="false"
     width="120px"
     height="285px"
     inkscape:zoom="1.1832576"
     inkscape:cx="54.58231"
     inkscape:cy="159.23583"
     inkscape:window-x="132"
     inkscape:window-y="144"
     inkscape:current-layer="svg2" />
  <desc
     id="desc4">Typy bodu
	point|cross|plus|star|square|circle|triangle|rhomb|pyramid|squareF|circleF|triangleF|rhombF|pyramidF</desc>
  <g
     id="g48"
     style="fill:none;stroke-width:1.5;stroke-linecap:round;stroke-linejoin:round"
     transform="translate(-23.60099,-19.65613)">
    <path
       id="path50"
       style="stroke:black" />
    <path
       id="path52"
       style="stroke:black" />
    <path
       id="path54"
       style="stroke:black" />
    <path
       id="path56"
       style="stroke:black" />
    <path
       id="path58"
       style="stroke:black" />
    <path
       id="path60"
       style="stroke:black" />
    <path
       id="path62"
       style="stroke:black" />
    <path
       id="path64"
       style="stroke:black" />
    <path
       id="path66"
       style="stroke:black" />
    <path
       id="path68"
       style="stroke:black" />
    <path
       id="path70"
       style="stroke:black" />
    <path
       id="path72"
       style="stroke:black" />
    <path
       id="path74"
       style="stroke:black" />
    <path
       id="path76"
       style="stroke:black" />
  </g>
  <g
     id="g2033"
     transform="translate(0,-33.60778)">
    <g
       style="color:black;fill:none;stroke:black;stroke-width:1.5;stroke-linecap:round"
       transform="matrix(5.014947,0,0,5.014947,-2023.665,-668.4524)"
       id="g78">
      <circle
         style="fill:currentColor"
         sodipodi:ry="1.5"
         sodipodi:rx="1.5"
         sodipodi:cy="73"
         sodipodi:cx="420.39999"
         id="circle80"
         r="1.5"
         cy="73"
         cx="420.39999" />
    </g>
    <g
       style="color:black;fill:none;stroke:black;stroke-width:1.5;stroke-linecap:round"
       transform="matrix(5.014947,0,0,5.014947,-2023.665,-668.4524)"
       id="g82">
      <path
         id="path84"
         d="M 417.4,85 L 423.4,91 M 423.4,85 L 417.4,91" />
    </g>
    <g
       style="color:black;fill:none;stroke:black;stroke-width:1.5;stroke-linecap:round"
       transform="matrix(5.014947,0,0,5.014947,-2023.665,-668.4524)"
       id="g86">
      <path
         id="path88"
         d="M 416.4,103 L 424.4,103 M 420.4,99 L 420.4,107" />
    </g>
    <g
       style="color:black;fill:none;stroke:black;stroke-width:1.5;stroke-linecap:round"
       transform="matrix(5.014947,0,0,5.014947,-2023.665,-668.4524)"
       id="g90">
      <path
         id="path92"
         d="M 420.4,114 L 420.4,122 M 416.92,116 L 423.84,120 M 416.92,120 L 423.84,116" />
    </g>
    <g
       style="color:black;fill:none;stroke:black;stroke-width:1.5;stroke-linecap:round"
       transform="matrix(5.014947,0,0,5.014947,-2023.665,-668.4524)"
       id="g94">
      <path
         id="path96"
         d="M 417.4,130 L 423.4,130 L 423.4,136 L 417.4,136 L 417.4,130 z " />
    </g>
    <g
       style="color:black;fill:none;stroke:black;stroke-width:1.5;stroke-linecap:round"
       transform="matrix(5.014947,0,0,5.014947,-2023.665,-668.4524)"
       id="g98">
      <circle
         sodipodi:ry="4"
         sodipodi:rx="4"
         sodipodi:cy="148"
         sodipodi:cx="420.39999"
         id="circle100"
         r="4"
         cy="148"
         cx="420.39999" />
    </g>
    <g
       style="color:black;fill:none;stroke:black;stroke-width:1.5;stroke-linecap:round"
       transform="matrix(5.014947,0,0,5.014947,-2023.665,-668.4524)"
       id="g102">
      <path
         id="path104"
         d="M 424.4,160.68 L 416.4,160.68 L 420.4,167.6 L 424.4,160.68 z " />
    </g>
    <g
       style="color:black;fill:none;stroke:black;stroke-width:1.5;stroke-linecap:round"
       transform="matrix(5.014947,0,0,5.014947,-2023.665,-668.4524)"
       id="g106">
      <path
         id="path108"
         d="M 420.4,174 L 424.4,178 L 420.4,182 L 416.4,178 L 420.4,174 z " />
    </g>
    <g
       style="color:black;fill:none;stroke:black;stroke-width:1.5;stroke-linecap:round"
       transform="matrix(5.014947,0,0,5.014947,-2023.665,-668.4524)"
       id="g110">
      <path
         id="path112"
         d="M 424.4,195.32 L 416.4,195.32 L 420.4,188.4 L 424.4,195.32 z " />
    </g>
    <g
       style="color:black;fill:none;stroke:black;stroke-width:1.5;stroke-linecap:round"
       transform="matrix(5.014947,0,0,5.014947,-2023.665,-668.4524)"
       id="g114">
      <path
         style="fill:currentColor"
         id="path116"
         d="M 417.4,205 L 423.4,205 L 423.4,211 L 417.4,211 L 417.4,205 z " />
    </g>
    <g
       style="color:black;fill:none;stroke:black;stroke-width:1.5;stroke-linecap:round"
       transform="matrix(5.014947,0,0,5.014947,-2023.665,-668.4524)"
       id="g118">
      <circle
         style="fill:currentColor"
         sodipodi:ry="4"
         sodipodi:rx="4"
         sodipodi:cy="223"
         sodipodi:cx="420.39999"
         id="circle120"
         r="4"
         cy="223"
         cx="420.39999" />
    </g>
    <g
       style="color:black;fill:none;stroke:black;stroke-width:1.5;stroke-linecap:round"
       transform="matrix(5.014947,0,0,5.014947,-2023.665,-668.4524)"
       id="g122">
      <path
         style="fill:currentColor"
         id="path124"
         d="M 424.4,235.68 L 416.4,235.68 L 420.4,242.6 L 424.4,235.68 z " />
    </g>
    <g
       style="color:black;fill:none;stroke:black;stroke-width:1.5;stroke-linecap:round"
       transform="matrix(5.014947,0,0,5.014947,-2023.665,-668.4524)"
       id="g126">
      <path
         style="fill:currentColor"
         id="path128"
         d="M 420.4,249 L 424.4,253 L 420.4,257 L 416.4,253 L 420.4,249 z " />
    </g>
    <g
       style="color:black;fill:none;stroke:black;stroke-width:1.5;stroke-linecap:round"
       transform="matrix(5.014947,0,0,5.014947,-2023.665,-668.4524)"
       id="g130">
      <path
         style="fill:currentColor"
         id="path132"
         d="M 424.4,270.32 L 416.4,270.32 L 420.4,263.4 L 424.4,270.32 z " />
    </g>
    <g
       style="font-size:10px;text-anchor:start;fill:black;font-family:Verdana"
       transform="matrix(5.014947,0,0,5.014947,-2194.24,-659.4747)"
       id="g134"
       font-size="10">
      <text
         style="fill:black"
         id="text136"
         y="73.75"
         x="472.89999">point</text>
      <text
         style="fill:black"
         id="text138"
         y="88.75"
         x="472.89999">cross</text>
      <text
         style="fill:black"
         id="text140"
         y="103.75"
         x="472.89999">plus</text>
      <text
         style="fill:black"
         id="text142"
         y="118.75"
         x="472.89999">star</text>
      <text
         style="fill:black"
         id="text144"
         y="133.75"
         x="472.89999">square</text>
      <text
         style="fill:black"
         id="text146"
         y="148.75"
         x="472.89999">circle</text>
      <text
         style="fill:black"
         id="text148"
         y="163.75"
         x="472.89999">triangle</text>
      <text
         style="fill:black"
         id="text150"
         y="178.75"
         x="472.89999">rhomb</text>
      <text
         style="fill:black"
         id="text152"
         y="193.75"
         x="472.89999">pyramid</text>
      <text
         style="fill:black"
         id="text154"
         y="208.75"
         x="472.89999">squareF</text>
      <text
         style="fill:black"
         id="text156"
         y="223.75"
         x="472.89999">circleF</text>
      <text
         style="fill:black"
         id="text158"
         y="238.75"
         x="472.89999">triangleF</text>
      <text
         style="fill:black"
         id="text160"
         y="253.75"
         x="472.89999">rhombF</text>
      <text
         style="fill:black"
         id="text162"
         y="268.75"
         x="472.89999">pyramidF</text>
    </g>
  </g>
</svg>
